<svg width="168" height="190" viewBox="0 0 168 190" fill="none" xmlns="http://www.w3.org/2000/svg">
<path id="Vector" d="M152.191 -22.7878C158.881 -31.5426 168.428 -34.9236 178.554 -37.2573C180.068 -37.6063 181.56 -38.0681 183.038 -38.5547C185.497 -39.3601 187.779 -40.4183 189.532 -42.4744C190.76 -43.912 192.417 -43.9642 193.681 -42.862C194.457 -42.1858 194.942 -41.3639 194.435 -40.3139C192.941 -37.205 193.516 -34.0934 194.234 -30.9186C195.292 -26.2375 196.404 -21.5536 197.1 -16.8148C197.915 -11.2705 196.864 -5.87198 194.818 -0.671337C194.689 -0.338737 194.57 -0.000644684 194.408 0.441906C194.675 0.425415 194.857 0.452896 195.005 0.397919C203.267 -2.73016 211.548 -2.22164 219.842 0.257736C222.827 1.14833 225.808 2.06092 228.798 2.93227C231.083 3.59747 233.371 3.71567 235.719 3.10545C236.44 2.91853 237.401 3.03398 238.07 3.37208C239.779 4.23244 240.187 6.53314 238.733 7.75633C235.68 10.3209 234.524 13.8641 233.186 17.377C231.543 21.6898 229.962 26.0438 227.975 30.1999C225.913 34.51 222.664 37.9679 218.821 40.8321C218.43 41.1235 218.059 41.4423 217.516 41.8794C218.805 42.146 219.873 42.3577 220.933 42.5913C228.077 44.1718 233.817 48.1658 239.014 53.086C241.109 55.0706 243.177 57.0882 245.277 59.0701C247.108 60.799 249.153 62.091 251.73 62.473C253.184 62.6874 254.015 63.7677 254.084 65.1146C254.147 66.346 253.354 67.5637 251.97 67.7836C248.278 68.3636 245.759 70.7413 243.221 73.1465C240.859 75.3839 238.56 77.6956 236.088 79.8067C230.824 84.3036 224.74 87.1321 217.615 88.2838C218.722 89.1992 219.661 89.9551 220.575 90.7357C226.461 95.7769 229.717 102.418 232.088 109.6C232.718 111.514 233.332 113.432 234.012 115.326C234.965 117.976 236.159 120.458 238.483 122.269C239.683 123.207 239.848 124.416 239.254 125.584C238.64 126.794 237.376 127.588 236.057 127.154C232.311 125.917 228.834 127.05 225.282 128.003C220.864 129.191 216.448 130.455 211.958 131.305C206.411 132.355 200.902 131.703 195.542 129.916C195.283 129.829 195.019 129.746 194.755 129.68C194.68 129.661 194.587 129.71 194.62 129.705C195.355 132.462 196.236 135.191 196.797 137.984C197.984 143.866 197.089 149.65 195.638 155.375C195.11 157.459 194.554 159.54 194.058 161.632C193.436 164.254 193.21 166.862 194.389 169.43C194.914 170.576 194.769 171.684 193.684 172.5C192.566 173.339 191.093 173.49 190.138 172.448C186.826 168.833 182.276 168.201 177.912 167.019C173.981 165.955 170.008 164.96 166.209 163.52C160.676 161.42 156.037 157.926 152.155 153.102C152.018 153.663 151.897 154.023 151.844 154.391C150.622 162.849 146.336 169.6 140.191 175.331C137.779 177.58 135.304 179.782 133.094 182.217C131.932 183.495 131.293 185.243 130.393 186.763C129.98 187.459 129.636 188.292 129.028 188.754C127.514 189.9 125.259 189.292 124.73 187.462C123.58 183.49 120.733 180.884 117.884 178.207C115.579 176.043 113.3 173.847 111.139 171.541C106.698 166.799 103.992 161.175 102.943 154.762C102.869 154.314 102.764 153.875 102.621 153.179C102.134 153.707 101.776 154.078 101.437 154.468C96.1546 160.565 89.2336 163.847 81.6217 165.903C78.04 166.871 74.4199 167.695 70.83 168.638C68.6194 169.218 66.6923 170.301 65.0956 171.997C63.8595 173.311 62.7308 173.429 61.4039 172.629C60.1761 171.887 59.8072 170.856 60.4982 169.16C61.7425 166.101 61.079 163.108 60.333 160.131C59.1437 155.381 57.6901 150.694 57.4479 145.755C57.1863 140.365 57.8691 135.156 60.2201 130.235C60.2917 130.081 60.3082 129.903 60.3935 129.57C58.8326 129.993 57.4038 130.406 55.9585 130.771C48.3989 132.682 41.0374 131.585 33.7421 129.331C30.9836 128.479 28.2059 127.687 25.4199 126.937C23.3414 126.379 21.2656 126.448 19.1872 127.113C17.6565 127.605 16.3957 127.052 15.6276 125.785C14.9173 124.614 14.9944 123.275 16.0873 122.445C18.5953 120.543 19.8203 117.866 20.8362 115.043C22.1549 111.384 23.3249 107.671 24.7619 104.062C27.1845 97.9787 30.9864 92.888 36.2941 88.971C36.4427 88.8611 36.5886 88.7484 36.7153 88.6165C36.7676 88.5642 36.7648 88.457 36.7511 88.5065C33.8797 87.5966 30.9643 86.838 28.1728 85.755C22.543 83.5725 18.086 79.6802 13.8409 75.5214C12.1726 73.8859 10.496 72.2559 8.76443 70.6891C7.21176 69.2845 5.41132 68.3416 3.30805 67.954C1.56267 67.6297 0.742291 66.6044 0.761562 65.0624C0.780833 63.6468 1.53239 62.7342 3.25575 62.4483C6.0858 61.981 8.16979 60.3015 10.1767 58.4653C13.6234 55.3098 16.9325 51.9975 20.5196 49.0124C24.9326 45.3401 30.1302 43.1905 35.7738 42.1295C36.1647 42.0553 36.5501 41.9453 36.9575 41.8491C35.0332 40.0817 33.0814 38.4407 31.3085 36.6238C27.0496 32.2615 24.6408 26.8409 22.6366 21.1895C21.4611 17.8745 20.2498 14.5623 18.8348 11.3462C18.3062 10.1423 17.1885 9.18019 16.2718 8.16865C15.099 6.87399 14.843 5.747 15.5532 4.44409C16.2387 3.18516 17.4968 2.59692 19.077 3.1027C21.7226 3.94656 24.2581 3.39956 26.7853 2.71787C31.2066 1.52216 35.5618 0.0460854 40.0243 -0.940716C46.7003 -2.4168 53.3322 -2.06496 59.7493 0.529869C59.865 0.576595 59.9971 0.579342 60.2724 0.628819C59.7218 -0.954464 59.1492 -2.42505 58.7005 -3.93137C56.5284 -11.2321 57.123 -18.5025 58.9923 -25.7565C59.7218 -28.5904 60.399 -31.4381 61.0653 -34.2859C61.4975 -36.1303 61.269 -37.9087 60.4816 -39.6459C59.9255 -40.8719 59.9503 -42.0621 61.1286 -42.9857C62.1637 -43.7965 63.6173 -43.9477 64.523 -42.9224C68.2065 -38.7691 73.3655 -37.9554 78.3016 -36.6773C84.7821 -35.0005 91.0891 -32.9472 96.3913 -28.6894C98.5524 -26.9549 100.493 -24.9456 102.572 -23.0297C102.819 -24.2502 103.087 -25.6108 103.373 -26.9659C104.722 -33.343 107.923 -38.7168 112.449 -43.3155C114.891 -45.7949 117.518 -48.0928 120.02 -50.5145C122.071 -52.4991 124.012 -54.5552 124.549 -57.5486C124.766 -58.7635 125.732 -59.3792 126.927 -59.5002C128.172 -59.6239 129.476 -59.2116 129.777 -58.0323C131.241 -52.2847 136.045 -49.2748 139.896 -45.52C144.315 -41.2127 148.188 -36.5591 150.17 -30.63C151.007 -28.1314 151.492 -25.5146 152.18 -22.7768L152.191 -22.7878ZM65.6187 35.1202C68.2477 38.9382 70.7089 42.4044 73.0517 45.9503C74.8934 48.7375 74.6154 50.2328 71.7743 51.9755C67.989 54.2982 64.0715 56.401 60.2476 58.6605C59.7989 58.9271 59.3089 59.5649 59.2924 60.0459C59.185 63.1575 59.2318 66.2718 59.1657 69.3862C59.1492 70.2273 59.5594 70.4994 60.2311 70.8677C64.278 73.097 68.3276 75.329 72.2808 77.7231C74.2272 78.9023 74.6401 80.5488 73.4178 82.44C71.0117 86.1646 68.4157 89.7682 65.8251 93.369C65.4232 93.9298 65.2333 94.2651 65.5939 94.8891C67.1989 97.6626 68.7736 100.453 70.3372 103.251C70.6979 103.897 71.0888 103.976 71.8596 103.935C76.5672 103.682 81.2803 103.476 85.9934 103.457C87.7993 103.449 89.107 105.01 88.9831 106.764C88.6748 111.189 88.2701 115.609 87.8158 120.024C87.7415 120.73 87.8213 121.104 88.4215 121.459C90.9459 122.951 93.4732 124.438 95.9481 126.008C96.8868 126.601 97.5283 126.546 98.4836 125.925C102.087 123.572 105.738 121.285 109.457 119.125C111.948 117.679 113.889 118.179 115.23 120.686C117.234 124.433 119.045 128.286 120.838 132.14C121.207 132.929 121.559 133.267 122.412 133.262C125.713 133.24 129.017 133.242 132.32 133.289C133.187 133.303 133.529 132.973 133.898 132.181C135.712 128.284 137.562 124.397 139.563 120.59C140.827 118.188 142.594 117.665 144.959 119.02C148.888 121.274 152.722 123.699 156.555 126.115C157.166 126.5 157.565 126.706 158.239 126.288C160.891 124.653 163.566 123.061 166.253 121.481C166.848 121.131 166.961 120.777 166.886 120.057C166.457 115.868 166.077 111.673 165.796 107.473C165.615 104.743 166.994 103.243 169.689 103.322C174.174 103.457 178.653 103.781 183.137 103.976C183.531 103.993 184.128 103.754 184.313 103.443C185.962 100.645 187.523 97.7945 189.152 94.9853C189.549 94.3009 189.353 93.9051 188.916 93.3058C186.372 89.8369 183.809 86.3762 181.439 82.7891C179.944 80.5296 180.318 78.8364 182.642 77.44C186.485 75.131 190.441 73.0118 194.397 70.9035C195.143 70.5049 195.534 70.1668 195.515 69.2982C195.446 66.1838 195.468 63.0695 195.358 59.9579C195.341 59.5071 194.898 58.9079 194.482 58.6633C190.656 56.4065 186.757 54.2735 182.95 51.9865C180.252 50.3648 179.853 48.6358 181.56 46.041C183.969 42.3824 186.501 38.809 189.078 35.0597C187.49 32.3137 185.816 29.3725 184.07 26.4726C183.859 26.118 183.25 25.7827 182.84 25.7964C178.49 25.9531 174.143 26.2335 169.794 26.3681C166.864 26.4589 165.681 25.3099 165.865 22.4182C166.132 18.2181 166.573 14.029 167.008 9.84264C167.087 9.08674 166.953 8.66617 166.292 8.28959C163.63 6.76403 160.979 5.21374 158.352 3.62496C157.747 3.25937 157.38 3.33635 156.791 3.71842C153.023 6.15382 149.237 8.56722 145.4 10.8927C142.779 12.4814 140.863 12.0169 139.448 9.33413C137.422 5.49137 135.566 1.5579 133.702 -2.36732C133.38 -3.04626 133.055 -3.35962 132.295 -3.35413C128.992 -3.33488 125.688 -3.39261 122.388 -3.32939C121.953 -3.32114 121.339 -2.86485 121.129 -2.45253C119.208 1.34349 117.432 5.21374 115.467 8.98502C113.812 12.1571 112.058 12.6134 108.97 10.7497C105.283 8.52599 101.655 6.20879 98.0458 3.86411C97.3686 3.4243 96.9116 3.35833 96.2261 3.77339C93.6796 5.31544 91.1194 6.841 88.5151 8.2841C87.6617 8.75688 87.6204 9.25991 87.7222 10.1505C88.204 14.4248 88.6307 18.7074 88.9363 22.9954C89.0822 25.0185 87.8406 26.3874 85.9466 26.3407C81.3216 26.228 76.6993 25.9668 72.0744 25.8102C71.6642 25.7964 71.0475 25.9971 70.8603 26.3022C69.0241 29.3038 67.2567 32.3494 65.6269 35.1147L65.6187 35.1202ZM145.455 136.074C143.261 136.45 141.144 136.78 139.043 137.209C138.754 137.269 138.41 137.803 138.357 138.154C138.165 139.419 138.154 140.711 137.953 141.975C137.165 146.926 135.561 151.582 132.389 155.535C129.554 159.07 125.438 159.048 122.509 155.59C121.743 154.688 121.055 153.696 120.472 152.668C117.95 148.22 116.414 143.476 116.281 138.319C116.27 137.935 115.929 137.294 115.64 137.228C113.553 136.755 111.439 136.401 109.228 135.988C108.826 137.583 108.416 139.078 108.075 140.587C105.592 151.585 107.926 161.283 115.99 169.378C118.478 171.876 121.132 174.21 123.643 176.684C124.995 178.014 126.209 179.482 127.489 180.892C128.287 179.941 128.981 178.965 129.823 178.135C132.956 175.051 136.254 172.126 139.28 168.941C148.4 159.342 149.138 148.121 145.452 136.074H145.455ZM58.9207 38.174C57.8415 37.5253 56.8422 36.9673 55.8869 36.3461C51.4381 33.4544 47.6473 29.9168 45.2385 25.1147C43.2233 21.0988 44.7567 17.5694 49.0155 16.2527C51.9805 15.3346 55.0005 15.5463 58.0122 15.9394C61.9985 16.4561 65.7756 17.6519 69.3324 19.6942C70.7887 17.9157 72.1927 16.2005 73.7537 14.2956C70.9814 12.245 68.4184 10.167 65.6737 8.35831C59.7136 4.42759 53.1367 2.50897 45.9763 3.26213C42.8516 3.58923 39.7408 4.27367 36.6878 5.04882C32.2307 6.1813 27.8342 7.53918 23.4267 8.79811C24.0627 10.2632 24.8307 11.819 25.4199 13.4408C26.5899 16.6623 27.5837 19.9498 28.7895 23.1576C31.7875 31.1345 37.0511 37.1103 44.7897 40.8184C48.5585 42.6243 52.5283 43.82 56.6688 44.7051C57.4314 42.4896 58.1554 40.3813 58.9152 38.174H58.9207ZM106.676 135.356C104.361 134.576 102.167 133.839 100.105 133.146C98.5634 134.933 97.2144 136.739 95.6232 138.297C92.0857 141.766 88.1324 144.625 83.1771 145.763C79.8157 146.535 76.9691 144.892 76.0882 141.574C75.7744 140.397 75.6147 139.133 75.6615 137.918C75.8404 133.166 77.3408 128.77 79.5349 124.589C79.9947 123.713 80.4957 122.858 80.972 122.003C79.1633 120.425 77.4482 118.93 75.5761 117.297C73.6959 119.284 71.8128 121.145 70.0757 123.135C65.4122 128.473 62.5216 134.603 62.3894 141.777C62.3399 144.411 62.5409 147.104 63.0557 149.686C64.0687 154.779 65.3819 159.812 66.5574 164.812C68.2147 164.268 69.9739 163.605 71.7798 163.116C75.0063 162.245 78.2685 161.508 81.5033 160.659C89.6741 158.515 96.5069 154.375 101.283 147.245C103.72 143.611 105.316 139.595 106.682 135.356H106.676ZM147.949 135.376C148.879 137.706 149.697 140.029 150.718 142.261C154.545 150.645 160.813 156.469 169.54 159.468C173.257 160.746 177.136 161.541 180.929 162.605C183.424 163.306 185.896 164.092 188.194 164.784C189.188 160.499 190.171 156.225 191.176 151.953C192.071 148.146 192.679 144.306 192.283 140.386C191.316 130.804 186.028 123.696 179.057 117.473C177.298 118.996 175.547 120.516 173.956 121.893C175.145 124.573 176.431 127.063 177.37 129.675C178.697 133.361 179.525 137.176 178.691 141.126C177.907 144.845 174.801 146.736 171.137 145.656C169.394 145.142 167.66 144.46 166.08 143.575C161.499 141.002 157.678 137.561 154.853 133.067C152.579 133.828 150.377 134.565 147.954 135.376H147.949ZM180.979 115.538C182.755 117.006 184.365 118.429 186.069 119.732C194.036 125.826 202.975 128.242 212.842 126.131C218.995 124.815 225.037 122.984 230.868 121.453C229.351 117.102 227.793 112.624 226.224 108.146C223.022 99.0095 217.213 92.1678 208.23 88.3141C204.985 86.9205 201.53 86.0161 198.089 84.8616C197.271 87.3932 196.574 89.5565 195.856 91.7775C196.307 92.0304 196.704 92.2531 197.098 92.4757C202.521 95.5571 207.005 99.6005 209.599 105.365C211.553 109.71 209.646 113.119 204.965 114.015C201.252 114.727 197.541 114.416 193.921 113.515C190.969 112.778 188.106 111.695 185.111 110.733C183.861 112.184 182.493 113.776 180.976 115.54L180.979 115.538ZM197.962 44.7491C199.779 44.2543 201.541 43.7898 203.294 43.2977C213.456 40.4528 221.114 34.6227 225.128 24.6584C227.276 19.3286 229.131 13.8833 231.033 8.71015C226.177 7.33028 221.125 5.87619 216.063 4.46058C210.257 2.83882 204.42 2.57769 198.537 4.10325C191.727 5.8707 186.3 9.89761 181.147 14.4743C182.611 16.2417 184.004 17.9212 185.381 19.5842C192.437 16.3572 197.309 15.3044 202.972 15.7662C209.913 16.3297 212.272 21.0713 208.547 26.9646C205.998 30.997 202.568 34.1114 198.499 36.555C197.568 37.113 196.618 37.6463 195.674 38.1933C196.445 40.4005 197.177 42.5061 197.962 44.7491ZM138.465 -7.50474C140.885 -7.02646 143.247 -6.56192 145.738 -6.0699C146.096 -7.68616 146.457 -9.19248 146.762 -10.7098C149.047 -22.0979 146.377 -32.0374 137.972 -40.2452C134.41 -43.7251 130.765 -47.1225 127.106 -50.6107C126.663 -50.1104 126.104 -49.3875 125.454 -48.758C122.52 -45.9296 119.516 -43.1698 116.617 -40.3056C109.941 -33.7114 106.558 -25.7922 107.164 -16.3255C107.387 -12.8538 108.047 -9.4701 109.093 -6.10288C111.497 -6.58116 113.776 -7.03196 116.042 -7.48275C116.163 -8.83239 116.224 -10.1106 116.4 -11.3722C117.129 -16.6718 118.792 -21.6168 122.206 -25.8389C125.105 -29.4233 129.077 -29.6487 132.048 -26.1358C133.644 -24.2474 134.894 -21.9852 135.932 -19.723C137.686 -15.9022 138.377 -11.7873 138.468 -7.51024L138.465 -7.50474ZM106.462 -5.31948C103.376 -16.0699 97.3934 -24.3793 86.9596 -28.5547C80.3195 -31.21 73.2994 -32.9142 66.5437 -35.017C65.4673 -30.6163 64.1954 -26.2128 63.3557 -21.7295C62.7198 -18.3348 62.2683 -14.8274 62.3784 -11.3915C62.6978 -1.30905 68.289 6.02737 75.5541 12.4924C77.2472 10.9531 78.9237 9.42757 80.5893 7.91301C80.303 7.44572 80.102 7.14062 79.9231 6.82451C77.1288 1.8685 75.3669 -3.38711 75.6752 -9.14575C75.9588 -14.4426 79.5982 -16.9632 84.6554 -15.3882C86.1255 -14.9291 87.557 -14.2364 88.8867 -13.4476C93.3162 -10.817 97.0603 -7.43053 99.8298 -3.02702C102.049 -3.79392 104.204 -4.53884 106.467 -5.31948H106.462ZM56.6743 85.0678C55.0831 85.4856 53.6185 85.8457 52.1704 86.2525C41.1338 89.3476 33.175 95.9226 29.1006 106.788C27.2561 111.703 25.563 116.676 23.8782 121.404C28.7152 122.742 33.7751 124.155 38.8433 125.54C43.2701 126.753 47.7574 127.187 52.3274 126.574C60.7817 125.439 67.554 121.156 73.6215 115.307C72.1652 113.63 70.764 112.017 69.3214 110.359C66.0371 112.22 62.5656 113.336 58.9179 113.888C55.507 114.405 52.0686 114.848 48.6907 113.828C45.0568 112.729 43.5784 109.793 44.7457 106.211C45.0265 105.348 45.3899 104.488 45.8551 103.71C48.71 98.9215 52.6274 95.2135 57.4947 92.4977C57.9599 92.2366 58.4197 91.9672 58.8629 91.7143C58.1278 89.4795 57.4286 87.3575 56.6743 85.0678ZM148.359 -5.26726C149.691 -4.81646 150.952 -4.41515 152.197 -3.9671C154.782 -3.03527 154.724 -3.06826 156.453 -5.27001C160.235 -10.0803 164.734 -13.9698 170.793 -15.6136C174.727 -16.6801 178.011 -14.7615 178.661 -10.7428C179.038 -8.40359 178.843 -5.90497 178.51 -3.53554C177.929 0.579342 176.271 4.35612 174.019 7.95425C175.735 9.4963 177.395 10.9861 179.396 12.7838C180.814 11.217 182.171 9.66946 183.58 8.16865C190.727 0.554596 193.689 -8.3816 191.859 -18.7032C191.11 -22.928 189.929 -27.0759 188.974 -31.2677C188.684 -32.5349 188.489 -33.8241 188.236 -35.1682C187.38 -34.8191 186.68 -34.4563 185.937 -34.2419C181.32 -32.9087 176.676 -31.6608 172.073 -30.2837C159.453 -26.5124 151.905 -17.895 148.356 -5.27001L148.359 -5.26726ZM198.68 82.0827C200.071 82.4263 201.345 82.7561 202.625 83.0585C212.734 85.4416 222.249 84.0975 230.541 77.7066C235.554 73.8446 240.022 69.2762 244.545 65.1943C241.561 62.3851 238.598 59.5374 235.567 56.7639C233.814 55.1586 232.035 53.5533 230.119 52.1515C220.451 45.0844 209.833 44.5566 198.645 47.7947C198.989 49.7161 199.303 51.6512 199.718 53.5643C199.779 53.8474 200.318 54.1773 200.671 54.2213C201.987 54.3889 203.33 54.367 204.641 54.5621C209.613 55.3043 214.276 56.8683 218.182 60.1613C219.757 61.4862 220.985 63.097 220.845 65.3372C220.693 67.7644 219.163 69.3422 217.348 70.6616C213.866 73.1932 209.88 74.5318 205.679 75.2328C203.754 75.5544 201.797 75.6725 199.82 75.8869C199.44 77.9485 199.069 79.9606 198.678 82.0827H198.68ZM55.953 47.6243C54.4306 47.3054 53.0899 47.0278 51.752 46.7474C41.7092 44.6309 32.316 46.1207 24.1893 52.5445C19.2615 56.4395 14.8265 60.9585 10.2813 65.0926C13.5601 68.2234 16.9187 71.4532 20.3021 74.6555C28.2995 82.2256 37.7201 85.3757 48.6659 83.6495C51.1271 83.2619 53.5579 82.6846 56.0439 82.1871C55.6915 80.3097 55.3061 78.7072 55.1161 77.0799C54.9922 76.0107 54.6261 75.6533 53.5139 75.6368C49.3486 75.5708 45.2632 74.8369 41.5275 72.9953C39.3058 71.9013 37.1172 70.4994 35.3553 68.7814C32.974 66.4587 33.1172 63.4543 35.4765 61.0877C36.7786 59.7793 38.3423 58.6385 39.9693 57.7644C44.1868 55.4967 48.7623 54.4302 53.5497 54.224C54.0259 54.2048 54.8243 53.8722 54.8959 53.5561C55.3336 51.6512 55.6006 49.7078 55.953 47.6243ZM133.488 -8.19468C133.284 -9.56631 133.152 -10.8307 132.904 -12.0732C132.141 -15.9242 130.913 -19.5965 128.474 -22.7493C127.574 -23.9148 127.095 -23.9176 126.233 -22.7851C122.966 -18.4915 121.688 -13.5053 121.157 -8.19468H133.485H133.488ZM95.0781 -1.2046C91.893 -5.292 88.1104 -8.56576 83.312 -10.5833C81.5088 -11.342 80.6141 -10.751 80.6388 -8.75818C80.6774 -5.47617 81.3601 -2.31234 82.6237 0.711285C83.2294 2.15988 83.9699 3.55624 84.6334 4.94436C88.2288 2.82782 91.6039 0.84322 95.0781 -1.20185V-1.2046ZM60.834 33.5424C62.7583 30.1807 64.6111 26.9399 66.5382 23.5727C65.3241 23.1164 64.1871 22.6463 63.0199 22.2615C59.2868 21.0328 55.474 20.3209 51.5235 20.6562C49.4257 20.8349 48.999 21.632 49.9708 23.4765C50.2048 23.919 50.4911 24.3396 50.7802 24.7491C53.39 28.4517 56.878 31.1537 60.8313 33.5424H60.834ZM188.249 23.6414C190.182 27.0169 192.007 30.2082 193.885 33.4874C194.87 32.8662 195.812 32.3137 196.712 31.6952C199.837 29.5512 202.595 27.0196 204.597 23.7761C205.794 21.8355 205.312 20.8652 203.074 20.681C197.879 20.2577 193.015 21.5578 188.249 23.6414ZM159.619 131.178C162.853 135.562 166.911 138.905 172.046 140.865C173.196 141.305 174.003 140.67 173.981 139.369C173.89 134.18 172.142 129.482 169.728 125.054C166.325 127.115 163.024 129.114 159.619 131.178ZM200.363 70.7963C205.431 70.5736 210.025 69.4109 214.188 66.7996C216.228 65.5186 216.192 64.4439 214.094 63.1822C211.047 61.3515 207.74 60.1641 204.236 59.5731C202.959 59.3587 201.656 59.2817 200.363 59.1415V70.7963ZM169.989 4.89214C172.442 0.477638 174.066 -4.15951 173.945 -9.28044C173.907 -10.8582 173.037 -11.2788 171.324 -10.5779C166.534 -8.61799 162.914 -5.20954 159.718 -1.24583C163.17 0.818481 166.526 2.82233 169.989 4.89214ZM60.6688 96.3679C56.3192 99.1414 52.4072 102.297 49.9295 106.915C48.9935 108.66 49.3404 109.268 51.3418 109.408C54.8105 109.653 58.1939 109.108 61.5057 108.116C63.141 107.627 64.7405 107.008 66.3978 106.431C64.4239 102.968 62.5766 99.7214 60.6688 96.3679ZM54.2765 59.1058C49.0238 59.4329 44.1593 60.7908 39.8124 63.732C38.535 64.5978 38.5543 65.5874 39.9665 66.39C42.0203 67.5527 44.1455 68.6907 46.381 69.4109C48.8614 70.2108 51.4987 70.5269 54.2737 71.0959V59.1058H54.2765ZM194.111 96.4064C192.181 99.8231 190.325 103.105 188.437 106.453C193.21 108.55 198.116 109.713 203.3 109.419C205.268 109.306 205.634 108.605 204.795 106.852C204.638 106.522 204.453 106.203 204.258 105.895C201.723 101.896 198.177 98.9792 194.111 96.4092V96.4064ZM84.9638 125.12C84.2094 126.717 83.4056 128.248 82.7531 129.842C81.5336 132.822 80.7214 135.911 80.6774 139.152C80.6554 140.832 81.3876 141.384 82.9183 140.725C84.5068 140.04 86.076 139.254 87.5268 138.319C90.5 136.409 93.0244 134.004 95.0644 131.126C91.703 129.128 88.4518 127.192 84.961 125.117L84.9638 125.12ZM133.311 138.086H121.24C121.768 142.825 122.908 147.335 125.609 151.34C127.112 153.569 127.792 153.575 129.207 151.335C131.728 147.338 132.898 142.91 133.311 138.089V138.086ZM139.236 -2.89234C139.167 -2.7604 139.095 -2.62571 139.026 -2.49377C140.538 0.334702 142.052 3.16317 143.605 6.06585C145.155 5.11203 146.515 4.27642 147.872 3.4353C149.207 2.60792 150.539 1.77504 151.875 0.94492C151.869 0.807484 151.864 0.672802 151.858 0.535362C147.652 -0.60537 143.445 -1.74885 139.236 -2.88958V-2.89234ZM111.092 6.01637C112.628 3.14118 114.126 0.342945 115.778 -2.74665C111.188 -1.81757 106.946 -0.819778 102.654 0.884449C105.583 2.66564 108.265 4.29565 111.092 6.01637ZM68.2312 81.0051C65.3048 79.3366 62.5574 77.7726 59.8099 76.2086C59.6915 76.2828 59.5732 76.357 59.4575 76.4285C60.5092 80.5956 61.558 84.7627 62.6097 88.927C62.7473 88.927 62.885 88.927 63.0226 88.927C64.7157 86.3515 66.4115 83.7731 68.2312 81.0024V81.0051ZM191.622 88.8748C191.762 88.8693 191.903 88.8638 192.043 88.8556C193.075 84.705 194.108 80.5571 195.14 76.4065L194.744 76.2498C191.982 77.8276 189.221 79.4054 186.372 81.0354C188.172 83.7264 189.896 86.302 191.619 88.8748H191.622ZM115.299 132.704C115.387 132.58 115.478 132.456 115.566 132.333C114.107 129.573 112.65 126.816 111.15 123.976C108.284 125.711 105.611 127.333 102.935 128.952L102.946 129.372C107.065 130.483 111.183 131.593 115.301 132.704H115.299ZM151.663 129.345C151.671 129.194 151.682 129.042 151.69 128.894C149.036 127.3 146.382 125.705 143.58 124.02C142.06 126.882 140.598 129.639 139.137 132.399C139.2 132.506 139.266 132.61 139.329 132.717C143.439 131.593 147.55 130.469 151.663 129.345ZM68.3524 47.9459C66.596 45.3373 64.9662 42.9184 63.1823 40.2713C61.6048 44.6804 60.366 48.7677 59.7438 53.2537C62.7281 51.412 65.4755 49.7188 68.3496 47.9431L68.3524 47.9459ZM191.762 40.5572C191.581 40.5765 191.402 40.593 191.22 40.6122C189.609 43.0531 187.999 45.494 186.344 48.0008C189.249 49.793 191.969 51.4725 194.689 53.152C194.81 53.0695 194.928 52.9843 195.049 52.9019C193.954 48.787 192.858 44.6721 191.762 40.5572ZM171.01 108.526C171.181 111.585 171.344 114.521 171.509 117.459L171.927 117.682C174.859 114.76 177.788 111.841 180.72 108.919L180.464 108.526H171.013H171.01ZM180.211 21.1153C180.293 20.9476 180.376 20.7772 180.459 20.6095C177.565 17.8772 174.669 15.1477 171.641 12.289C171.415 15.3237 171.195 18.2566 170.98 21.1153H180.211ZM74.4529 108.457L74.1336 108.916C77.0104 111.83 79.89 114.743 82.7669 117.657C82.899 117.564 83.0339 117.467 83.1661 117.374C83.345 114.427 83.5212 111.481 83.7056 108.457H74.4502H74.4529ZM74.0235 20.4336C74.1942 20.6755 74.3621 20.9174 74.5328 21.1593H83.7359C83.4992 18.1439 83.2679 15.222 83.0422 12.3825C79.9919 15.1065 77.0077 17.7701 74.0235 20.4336Z" fill="#783050" fill-opacity="0.15"/>
</svg>
